<mxfile host="65bd71144e">
    <diagram id="gX2a6n4IcRKawqNqYFNi" name="Page-1">
        <mxGraphModel dx="1012" dy="1507" grid="0" gridSize="10" guides="1" tooltips="1" connect="1" arrows="1" fold="1" page="0" pageScale="1" pageWidth="850" pageHeight="1100" background="#ffffff" math="0" shadow="0">
            <root>
                <mxCell id="0"/>
                <mxCell id="1" parent="0"/>
                <mxCell id="2" value="&lt;font&gt;Version&lt;br&gt;&lt;font style=&quot;font-size: 11px&quot; color=&quot;#65899e&quot;&gt;4 bits&lt;/font&gt;&lt;br&gt;&lt;/font&gt;" style="rounded=0;whiteSpace=wrap;html=1;fillColor=none;strokeColor=#999999;strokeWidth=5;fontColor=#000000;fontStyle=1;fontSize=16;" parent="1" vertex="1">
                    <mxGeometry x="40" y="40" width="80" height="60" as="geometry"/>
                </mxCell>
                <mxCell id="3" value="&lt;font style=&quot;font-size: 16px&quot;&gt;IHL&lt;br&gt;&lt;span style=&quot;color: rgb(101 , 137 , 158) ; font-size: 11px&quot;&gt;4 bits&lt;/span&gt;&lt;br&gt;&lt;/font&gt;" style="rounded=0;whiteSpace=wrap;html=1;fillColor=none;strokeColor=#999999;strokeWidth=5;fontStyle=1;fontSize=16;fontColor=#000000;" parent="1" vertex="1">
                    <mxGeometry x="120" y="40" width="80" height="60" as="geometry"/>
                </mxCell>
                <mxCell id="23" style="edgeStyle=none;html=1;fontSize=14;fontColor=#65899E;strokeColor=#65899E;strokeWidth=5;dashed=1;dashPattern=1 1;" edge="1" parent="1" source="4">
                    <mxGeometry relative="1" as="geometry">
                        <mxPoint x="280" y="-70" as="targetPoint"/>
                    </mxGeometry>
                </mxCell>
                <mxCell id="4" value="Type of Service&lt;br&gt;&lt;span style=&quot;color: rgb(101 , 137 , 158) ; font-size: 11px&quot;&gt;8 bits&lt;/span&gt;" style="rounded=0;whiteSpace=wrap;html=1;fillColor=none;strokeColor=#999999;strokeWidth=5;fontColor=#000000;fontStyle=1;fontSize=16;" parent="1" vertex="1">
                    <mxGeometry x="200" y="40" width="160" height="60" as="geometry"/>
                </mxCell>
                <mxCell id="5" value="Total Length&lt;br&gt;&lt;span style=&quot;color: rgb(101 , 137 , 158) ; font-size: 11px&quot;&gt;16 bits&lt;/span&gt;" style="rounded=0;whiteSpace=wrap;html=1;fillColor=none;strokeColor=#999999;strokeWidth=5;fontColor=#000000;fontStyle=1;fontSize=16;" parent="1" vertex="1">
                    <mxGeometry x="360" y="40" width="320" height="60" as="geometry"/>
                </mxCell>
                <mxCell id="6" value="Identification&lt;br&gt;&lt;span style=&quot;color: rgb(101 , 137 , 158) ; font-size: 11px&quot;&gt;16 bits&lt;/span&gt;" style="rounded=0;whiteSpace=wrap;html=1;fillColor=none;strokeColor=#999999;strokeWidth=5;fontColor=#000000;fontStyle=1;fontSize=16;" parent="1" vertex="1">
                    <mxGeometry x="40" y="100" width="320" height="60" as="geometry"/>
                </mxCell>
                <mxCell id="7" value="Fragment Offset&lt;br&gt;&lt;span style=&quot;color: rgb(101 , 137 , 158) ; font-size: 11px&quot;&gt;13 bits&lt;/span&gt;" style="rounded=0;whiteSpace=wrap;html=1;fillColor=none;strokeColor=#999999;strokeWidth=5;fontColor=#000000;fontStyle=1;fontSize=16;" parent="1" vertex="1">
                    <mxGeometry x="420" y="100" width="260" height="60" as="geometry"/>
                </mxCell>
                <mxCell id="28" style="edgeStyle=none;html=1;fontSize=14;fontColor=#000000;strokeColor=#65899E;strokeWidth=5;dashed=1;dashPattern=1 1;" edge="1" parent="1" source="8">
                    <mxGeometry relative="1" as="geometry">
                        <mxPoint x="460" y="-50" as="targetPoint"/>
                        <Array as="points">
                            <mxPoint x="390" y="-50"/>
                        </Array>
                    </mxGeometry>
                </mxCell>
                <mxCell id="8" value="Flags&lt;br&gt;&lt;span style=&quot;color: rgb(101 , 137 , 158) ; font-size: 11px&quot;&gt;3&amp;nbsp;bits&lt;/span&gt;" style="rounded=0;whiteSpace=wrap;html=1;fillColor=none;strokeColor=#999999;strokeWidth=5;fontColor=#000000;fontStyle=1;fontSize=16;" parent="1" vertex="1">
                    <mxGeometry x="360" y="100" width="60" height="60" as="geometry"/>
                </mxCell>
                <mxCell id="9" value="Time to Live&lt;br&gt;&lt;span style=&quot;color: rgb(101 , 137 , 158) ; font-size: 11px&quot;&gt;8 bits&lt;/span&gt;" style="rounded=0;whiteSpace=wrap;html=1;fillColor=none;strokeColor=#999999;strokeWidth=5;fontColor=#000000;fontStyle=1;fontSize=16;" parent="1" vertex="1">
                    <mxGeometry x="40" y="160" width="160" height="60" as="geometry"/>
                </mxCell>
                <mxCell id="10" value="Protocol&lt;br&gt;&lt;span style=&quot;color: rgb(101 , 137 , 158) ; font-size: 11px&quot;&gt;8 bits&lt;/span&gt;" style="rounded=0;whiteSpace=wrap;html=1;fillColor=none;strokeColor=#999999;strokeWidth=5;fontColor=#000000;fontStyle=1;fontSize=16;" parent="1" vertex="1">
                    <mxGeometry x="200" y="160" width="160" height="60" as="geometry"/>
                </mxCell>
                <mxCell id="11" value="Header Checksum&lt;br&gt;&lt;span style=&quot;color: rgb(101 , 137 , 158) ; font-size: 11px&quot;&gt;16 bits&lt;/span&gt;" style="rounded=0;whiteSpace=wrap;html=1;fillColor=none;strokeColor=#999999;strokeWidth=5;fontColor=#000000;fontStyle=1;fontSize=16;" parent="1" vertex="1">
                    <mxGeometry x="360" y="160" width="320" height="60" as="geometry"/>
                </mxCell>
                <mxCell id="12" value="Source Address&lt;br&gt;&lt;span style=&quot;color: rgb(101 , 137 , 158) ; font-size: 11px&quot;&gt;32 bits&lt;/span&gt;" style="rounded=0;whiteSpace=wrap;html=1;fillColor=none;strokeColor=#999999;strokeWidth=5;fontColor=#000000;fontStyle=1;fontSize=16;" parent="1" vertex="1">
                    <mxGeometry x="40" y="220" width="640" height="60" as="geometry"/>
                </mxCell>
                <mxCell id="13" value="Destination Address&lt;br&gt;&lt;span style=&quot;color: rgb(101 , 137 , 158) ; font-size: 11px&quot;&gt;32 bits&lt;/span&gt;" style="rounded=0;whiteSpace=wrap;html=1;fillColor=none;strokeColor=#999999;strokeWidth=5;fontColor=#000000;fontStyle=1;fontSize=16;" parent="1" vertex="1">
                    <mxGeometry x="40" y="280" width="640" height="60" as="geometry"/>
                </mxCell>
                <mxCell id="35" style="edgeStyle=none;html=1;exitX=0.25;exitY=1;exitDx=0;exitDy=0;dashed=1;dashPattern=1 1;fontSize=14;fontColor=#000000;strokeColor=#65899E;strokeWidth=5;" edge="1" parent="1" source="14">
                    <mxGeometry relative="1" as="geometry">
                        <mxPoint x="200" y="480" as="targetPoint"/>
                        <Array as="points">
                            <mxPoint x="120" y="480"/>
                        </Array>
                    </mxGeometry>
                </mxCell>
                <mxCell id="14" value="Options&lt;br&gt;&lt;span style=&quot;color: rgb(101 , 137 , 158) ; font-size: 11px&quot;&gt;variable&lt;/span&gt;" style="rounded=0;whiteSpace=wrap;html=1;fillColor=none;strokeColor=#999999;strokeWidth=5;fontColor=#000000;fontStyle=1;fontSize=16;" parent="1" vertex="1">
                    <mxGeometry x="40" y="340" width="320" height="60" as="geometry"/>
                </mxCell>
                <mxCell id="15" value="Padding&lt;br&gt;&lt;span style=&quot;color: rgb(101 , 137 , 158) ; font-size: 11px&quot;&gt;variable&lt;/span&gt;" style="rounded=0;whiteSpace=wrap;html=1;fillColor=none;strokeColor=#999999;strokeWidth=5;fontColor=#000000;fontStyle=1;fontSize=16;" parent="1" vertex="1">
                    <mxGeometry x="360" y="340" width="320" height="60" as="geometry"/>
                </mxCell>
                <mxCell id="27" style="edgeStyle=none;html=1;fontSize=14;fontColor=#000000;strokeColor=#65899E;strokeWidth=5;dashed=1;dashPattern=1 1;" edge="1" parent="1" source="17">
                    <mxGeometry relative="1" as="geometry">
                        <mxPoint x="390.0000000000001" y="-260" as="targetPoint"/>
                    </mxGeometry>
                </mxCell>
                <mxCell id="17" value="&amp;nbsp;Precedence&lt;font color=&quot;#65899e&quot;&gt; 3 bits&lt;/font&gt;" style="rounded=0;whiteSpace=wrap;html=1;fillColor=none;strokeColor=#999999;strokeWidth=5;fontColor=#000000;fontSize=14;align=left;" vertex="1" parent="1">
                    <mxGeometry x="220" y="-280" width="120" height="40" as="geometry"/>
                </mxCell>
                <mxCell id="18" value="&amp;nbsp;Delay&amp;nbsp; &amp;nbsp; &amp;nbsp; &amp;nbsp; &amp;nbsp; &amp;nbsp; &lt;font color=&quot;#65899e&quot;&gt;1 bit&lt;/font&gt;" style="rounded=0;whiteSpace=wrap;html=1;fillColor=none;strokeColor=#999999;strokeWidth=5;fontColor=#000000;fontSize=14;align=left;" vertex="1" parent="1">
                    <mxGeometry x="220" y="-240" width="120" height="40" as="geometry"/>
                </mxCell>
                <mxCell id="19" value="&amp;nbsp;Throughput&amp;nbsp; &amp;nbsp;&lt;font color=&quot;#65899e&quot;&gt;1 bit&lt;/font&gt;" style="rounded=0;whiteSpace=wrap;html=1;fillColor=none;strokeColor=#999999;strokeWidth=5;fontColor=#000000;fontSize=14;align=left;" vertex="1" parent="1">
                    <mxGeometry x="220" y="-200" width="120" height="40" as="geometry"/>
                </mxCell>
                <mxCell id="20" value="&amp;nbsp;Relibility&amp;nbsp; &amp;nbsp; &amp;nbsp; &amp;nbsp; &lt;font color=&quot;#65899e&quot;&gt;1 bit&lt;/font&gt;" style="rounded=0;whiteSpace=wrap;html=1;fillColor=none;strokeColor=#999999;strokeWidth=5;fontColor=#000000;fontSize=14;align=left;" vertex="1" parent="1">
                    <mxGeometry x="220" y="-160" width="120" height="40" as="geometry"/>
                </mxCell>
                <mxCell id="21" value="&amp;nbsp;Reserved&amp;nbsp; &amp;nbsp; &lt;font color=&quot;#65899e&quot;&gt;2 bits&lt;/font&gt;" style="rounded=0;whiteSpace=wrap;html=1;fillColor=none;strokeColor=#999999;strokeWidth=5;fontColor=#000000;fontSize=14;align=left;" vertex="1" parent="1">
                    <mxGeometry x="220" y="-120" width="120" height="40" as="geometry"/>
                </mxCell>
                <mxCell id="25" value="&lt;div&gt;&lt;pre style=&quot;max-width: 100% ; line-height: inherit ; vertical-align: baseline ; border: 1px solid rgba(128 , 128 , 128 , 0.1) ; padding: 0.5em ; margin-top: 1.5em ; margin-bottom: 1.5em ; overflow: auto&quot;&gt;111 - Network Control&lt;br&gt;110 - Internetwork Control&lt;br&gt;101 - CRITIC/ECP&lt;br&gt;100 - Flash Override&lt;br&gt;011 - Flash&lt;br&gt;010 - Immediate&lt;br&gt;001 - Priority&lt;br&gt;000 - Routine&lt;/pre&gt;&lt;/div&gt;" style="text;html=1;spacing=5;spacingTop=-20;whiteSpace=wrap;overflow=hidden;rounded=0;fontSize=14;fontColor=#000000;labelBackgroundColor=#E6E6E6;" vertex="1" parent="1">
                    <mxGeometry x="400" y="-290" width="240" height="170" as="geometry"/>
                </mxCell>
                <mxCell id="29" value="&amp;nbsp;Reserved, fix zero&amp;nbsp; &amp;nbsp; &amp;nbsp; &amp;nbsp;&amp;nbsp;&lt;font color=&quot;#65899e&quot;&gt;1 bit&lt;/font&gt;" style="rounded=0;whiteSpace=wrap;html=1;fontSize=14;fontColor=#000000;strokeColor=#999999;strokeWidth=5;fillColor=none;align=left;" vertex="1" parent="1">
                    <mxGeometry x="480" y="-90" width="180" height="30" as="geometry"/>
                </mxCell>
                <mxCell id="30" value="&amp;nbsp;Fragment or not&amp;nbsp; &amp;nbsp; &amp;nbsp; &amp;nbsp; &amp;nbsp; &amp;nbsp;&lt;span style=&quot;color: rgb(101 , 137 , 158)&quot;&gt;1 bit&lt;/span&gt;" style="rounded=0;whiteSpace=wrap;html=1;fontSize=14;fontColor=#000000;strokeColor=#999999;strokeWidth=5;fillColor=none;align=left;" vertex="1" parent="1">
                    <mxGeometry x="480" y="-60" width="180" height="30" as="geometry"/>
                </mxCell>
                <mxCell id="31" value="&amp;nbsp;Fragment less or more&amp;nbsp;&lt;span style=&quot;color: rgb(101 , 137 , 158)&quot;&gt;1 bit&lt;/span&gt;" style="rounded=0;whiteSpace=wrap;html=1;fontSize=14;fontColor=#000000;strokeColor=#999999;strokeWidth=5;fillColor=none;align=left;" vertex="1" parent="1">
                    <mxGeometry x="480" y="-30" width="180" height="30" as="geometry"/>
                </mxCell>
                <mxCell id="32" value="&lt;h1&gt;&lt;pre style=&quot;max-width: 100% ; line-height: inherit ; vertical-align: baseline ; font-weight: 300 ; border: 1px solid rgba(128 , 128 , 128 , 0.1) ; padding: 0.5em ; margin-top: 1.5em ; margin-bottom: 1.5em ; overflow: auto ; font-size: 14px&quot;&gt;Options:&lt;br/&gt; copied flag&lt;br&gt; option class&lt;br&gt; option number&lt;br&gt; no operation&lt;br&gt; security&lt;br&gt; compartments&lt;br&gt; handling restrictions&lt;br&gt; transmission control code&lt;br&gt; loose source &amp;amp; record route&lt;br&gt; strict source &amp;amp; record route&lt;br&gt; record route&lt;br&gt; stream identifier&lt;br&gt; internet timestemp&lt;/pre&gt;&lt;/h1&gt;" style="text;html=1;strokeColor=none;fillColor=none;spacing=5;spacingTop=-20;whiteSpace=wrap;overflow=hidden;rounded=0;fontSize=14;fontColor=#000000;labelBackgroundColor=#E6E6E6;" vertex="1" parent="1">
                    <mxGeometry x="220" y="450" width="370" height="280" as="geometry"/>
                </mxCell>
            </root>
        </mxGraphModel>
    </diagram>
</mxfile>